<?xml version="1.0" encoding="UTF-8" standalone="no"?>
<svg
   xmlns:dc="http://purl.org/dc/elements/1.1/"
   xmlns:cc="http://creativecommons.org/ns#"
   xmlns:rdf="http://www.w3.org/1999/02/22-rdf-syntax-ns#"
   xmlns:svg="http://www.w3.org/2000/svg"
   xmlns="http://www.w3.org/2000/svg"
   viewBox="0 0 623.62268 207.87466"
   height="207.87466"
   width="623.62268"
   xml:space="preserve"
   id="svg2"
   version="1.1"><metadata
     id="metadata8"><rdf:RDF><cc:Work
         rdf:about=""><dc:format>image/svg+xml</dc:format><dc:type
           rdf:resource="http://purl.org/dc/dcmitype/StillImage" /></cc:Work></rdf:RDF></metadata><defs
     id="defs6"><clipPath
       id="clipPath18"
       clipPathUnits="userSpaceOnUse"><path
         id="path16"
         d="M 0,155.906 H 467.717 V 0 H 0 Z" /></clipPath></defs><g
     transform="matrix(1.3333333,0,0,-1.3333333,0,207.87467)"
     id="g10"><g
       id="g12"><g
         clip-path="url(#clipPath18)"
         id="g14"><g
           transform="translate(247.5908,78.1892)"
           id="g20"><path
             id="path22"
             style="fill:#577ea8;fill-opacity:1;fill-rule:nonzero;stroke:none"
             d="m 0,0 c -1.132,-1.913 -1.139,-4.305 -0.02,-6.242 1.263,-2.185 3.686,-3.439 6.649,-3.439 h 0.003 l 8.013,10e-4 c -1.227,-6.335 -8.126,-7.293 -12.175,-7.293 -6.842,0 -10.803,2.702 -10.803,16.513 v 52.304 c 0,4.921 -3.429,7.497 -6.816,7.497 -3.388,0 -6.818,-2.576 -6.818,-7.497 V -0.46 c 0,-10.458 -1.767,-16.513 -10.803,-16.513 -4.048,0 -10.948,0.958 -12.174,7.293 h 7.877 0.062 c 3.011,0 5.46,1.251 6.725,3.438 1.119,1.937 1.112,4.329 -0.019,6.242 -1.283,2.169 -3.769,3.395 -6.789,3.325 -4.432,-0.094 -6.926,-0.066 -10.084,-0.031 l -0.179,0.002 c -1.8,0.019 -3.844,0.04 -6.519,0.04 -2.218,0 -3.212,1.027 -3.212,2.044 0,1.018 0.994,2.044 3.212,2.044 h 16.824 c 2.396,0 4.462,0.641 5.975,1.853 1.488,1.192 2.341,2.888 2.341,4.652 0,3.072 -2.603,6.378 -8.316,6.378 h -12.906 c -2.941,0 -4.28,1.383 -4.28,2.668 0,1.285 1.339,2.668 4.28,2.668 h 12.906 c 4.87,0 7.419,3.356 7.419,6.67 0,3.261 -2.549,6.561 -7.419,6.561 h -9.832 c -2.685,0 -4.089,1.194 -4.089,2.374 0,1.099 1.279,2.282 4.089,2.282 h 9.832 c 2.775,0 4.47,1.063 5.404,1.955 1.245,1.19 1.93,2.805 1.93,4.548 0,1.686 -0.687,3.36 -1.884,4.592 -0.947,0.975 -2.654,2.136 -5.409,2.136 h -10e-4 l -3.268,0.067 c 1.419,5.116 9.772,10.535 25.133,10.628 10.147,0.046 19.072,-2.492 23.275,-6.669 1.227,-1.221 2.033,-2.573 2.397,-4.025 H 6.747 c -4.764,0 -7.335,-3.467 -7.335,-6.729 0,-1.743 0.686,-3.358 1.93,-4.548 0.933,-0.892 2.63,-1.955 5.405,-1.955 h 9.832 c 2.809,0 4.088,-1.183 4.088,-2.282 0,-1.18 -1.404,-2.374 -4.088,-2.374 H 6.747 c -2.793,0 -4.507,-1.073 -5.454,-1.973 -1.268,-1.203 -1.965,-2.833 -1.965,-4.588 0,-3.314 2.548,-6.67 7.419,-6.67 h 12.905 c 2.941,0 4.28,-1.383 4.28,-2.668 0,-1.285 -1.339,-2.668 -4.28,-2.668 H 6.747 c -5.714,0 -8.316,-3.306 -8.316,-6.378 0,-3.233 2.856,-6.505 8.316,-6.505 H 23.57 c 2.218,0 3.211,-1.026 3.211,-2.043 0,-1.017 -0.993,-2.044 -3.211,-2.044 -2.749,0 -4.832,-0.023 -6.703,-0.043 C 13.698,3.26 11.197,3.231 6.788,3.325 3.764,3.373 1.287,2.178 0,0 M 23.57,11.372 H 6.747 c -2.868,0 -4.368,1.286 -4.368,2.557 0,1.171 1.366,2.43 4.368,2.43 h 12.905 c 5.402,0 8.228,3.328 8.228,6.616 0,3.288 -2.826,6.616 -8.228,6.616 H 6.747 c -2.397,0 -3.471,1.367 -3.471,2.722 0,1.206 0.909,2.613 3.471,2.613 h 9.832 c 5.275,0 8.036,3.18 8.036,6.322 0,3.001 -2.514,6.231 -8.036,6.231 H 6.747 c -1.162,0 -2.088,0.298 -2.678,0.862 -0.457,0.436 -0.709,1.036 -0.709,1.692 0,1.34 1.06,2.781 3.387,2.781 h 5.876 c 1.148,0 2.083,0.935 2.083,2.084 0,3.266 -1.275,6.19 -3.789,8.688 -4.926,4.896 -14.529,7.819 -25.69,7.819 l -0.393,-0.001 c -14.116,-0.085 -29.31,-5.287 -29.31,-16.506 0,-1.066 0.868,-1.952 1.934,-1.974 l 5.496,-0.11 c 2.326,0 3.385,-1.441 3.385,-2.781 0,-0.656 -0.251,-1.256 -0.709,-1.692 -0.589,-0.564 -1.515,-0.862 -2.676,-0.862 h -9.832 c -5.522,0 -8.037,-3.23 -8.037,-6.231 0,-3.142 2.761,-6.322 8.037,-6.322 h 9.832 c 2.561,0 3.47,-1.407 3.47,-2.613 0,-0.684 -0.274,-1.325 -0.771,-1.806 -0.619,-0.6 -1.553,-0.916 -2.699,-0.916 h -12.906 c -5.402,0 -8.228,-3.328 -8.228,-6.616 0,-3.288 2.826,-6.616 8.228,-6.616 h 12.906 c 3.001,0 4.368,-1.259 4.368,-2.43 0,-1.271 -1.501,-2.557 -4.368,-2.557 H -53.87 c -4.7,0 -7.159,-3.015 -7.159,-5.992 0,-2.977 2.459,-5.991 7.159,-5.991 2.725,0 4.795,-0.023 6.655,-0.043 3.08,-0.035 5.741,-0.064 10.208,0.032 1.611,0.049 2.767,-0.471 3.309,-1.386 0.406,-0.689 0.406,-1.554 -10e-4,-2.259 -0.546,-0.945 -1.706,-1.466 -3.265,-1.466 l -10.146,10e-4 c -0.523,0 -1.034,-0.214 -1.403,-0.585 -0.367,-0.372 -0.576,-0.886 -0.57,-1.408 0.08,-8.263 6.178,-13.196 16.313,-13.196 14.751,0 14.751,13.31 14.751,20.461 v 52.304 c 0,2.451 1.442,3.549 2.871,3.55 1.426,-10e-4 2.867,-1.099 2.867,-3.55 V -0.46 c 0,-7.151 0,-20.461 14.751,-20.461 10.135,0 16.233,4.933 16.313,13.196 0.006,0.522 -0.203,1.036 -0.571,1.408 -0.374,0.377 -0.872,0.585 -1.402,0.585 H 6.722 c -1.572,-0.027 -2.758,0.487 -3.323,1.465 -0.407,0.705 -0.408,1.57 -10e-4,2.258 0.541,0.916 1.716,1.419 3.307,1.387 4.509,-0.095 7.149,-0.066 10.205,-0.032 1.835,0.02 3.915,0.043 6.66,0.043 4.701,0 7.159,3.014 7.159,5.992 0,2.977 -2.458,5.991 -7.159,5.991" /></g><path
           id="path24"
           style="fill:#577ea8;fill-opacity:1;fill-rule:nonzero;stroke:none"
           d="m 344.667,6.918 h -4.497 v 24.203 h 4.497 z m -5.053,31.176 c 0,1.516 1.263,2.779 2.779,2.779 1.516,0 2.779,-1.263 2.779,-2.779 0,-1.516 -1.263,-2.779 -2.779,-2.779 -1.516,0 -2.779,1.263 -2.779,2.779" /><g
           transform="translate(371.3457,31.1213)"
           id="g26"><path
             id="path28"
             style="fill:#577ea8;fill-opacity:1;fill-rule:nonzero;stroke:none"
             d="m 0,0 -8.118,-21.694 c -0.618,-1.636 -2.185,-2.718 -3.933,-2.718 -1.749,0 -3.314,1.082 -3.932,2.718 L -24.103,0 h 4.953 L -11.925,-20.161 -4.598,0 Z" /></g><g
           transform="translate(136.9917,17.7307)"
           id="g30"><path
             id="path32"
             style="fill:#577ea8;fill-opacity:1;fill-rule:nonzero;stroke:none"
             d="m 0,0 c 0,-4.244 2.476,-7.074 6.215,-7.074 3.84,0 6.316,2.83 6.316,7.074 v 13.391 h 4.497 V -0.354 c 0,-6.569 -4.295,-10.914 -10.813,-10.914 -6.468,0 -10.712,4.345 -10.712,10.914 V 13.391 H 0 Z" /></g><path
           id="path34"
           style="fill:#577ea8;fill-opacity:1;fill-rule:nonzero;stroke:none"
           d="m 159.528,41.681 h 4.497 V 6.918 h -4.497 z" /><path
           id="path36"
           style="fill:#577ea8;fill-opacity:1;fill-rule:nonzero;stroke:none"
           d="m 169.886,41.681 h 4.497 V 6.918 h -4.497 z" /><g
           transform="translate(183.1245,20.8635)"
           id="g38"><path
             id="path40"
             style="fill:#577ea8;fill-opacity:1;fill-rule:nonzero;stroke:none"
             d="M 0,0 H 14.654 C 13.946,4.497 11.167,7.023 7.377,7.023 3.436,7.023 0.657,4.042 0,0 m -4.648,-1.819 c 0,7.023 5.103,12.683 11.975,12.683 6.771,0 11.924,-5.407 11.924,-12.228 0,-0.607 -0.05,-1.263 -0.151,-1.616 H -0.101 c 0.506,-4.346 3.689,-7.581 8.287,-7.581 2.729,0 5.154,1.062 6.771,2.678 l 2.375,-3.082 c -1.971,-2.122 -5.407,-3.587 -9.297,-3.587 -7.378,0 -12.683,5.71 -12.683,12.733" /></g><g
           transform="translate(210.5117,6.9182)"
           id="g42"><path
             id="path44"
             style="fill:#577ea8;fill-opacity:1;fill-rule:nonzero;stroke:none"
             d="M 0,0 H -4.497 V 24.203 H 0 v -3.032 c 1.314,2.224 3.385,3.639 6.063,3.639 1.516,0 2.83,-0.355 3.689,-1.062 L 7.883,19.554 C 7.074,20.11 5.912,20.515 4.75,20.515 1.819,20.515 0,17.987 0,13.945 Z" /></g><path
           id="path46"
           style="fill:#577ea8;fill-opacity:1;fill-rule:nonzero;stroke:none"
           d="m 231.886,39.306 h 4.547 V 6.918 h -4.547 z" /><g
           transform="translate(247.0947,6.9182)"
           id="g48"><path
             id="path50"
             style="fill:#577ea8;fill-opacity:1;fill-rule:nonzero;stroke:none"
             d="M 0,0 H -4.497 V 24.203 H 0 v -2.981 c 1.516,2.273 4.093,3.588 7.276,3.588 5.71,0 9.399,-3.892 9.399,-10.005 V 0 h -4.497 v 14.097 c 0,3.992 -2.324,6.518 -6.115,6.518 C 2.273,20.615 0,18.089 0,14.097 Z" /></g><g
           transform="translate(266.498,31.1213)"
           id="g52"><path
             id="path54"
             style="fill:#577ea8;fill-opacity:1;fill-rule:nonzero;stroke:none"
             d="M 0,0 H 4.042 V 6.013 H 8.488 V 0 H 15.36 V -3.992 H 8.539 v -12.783 c 0,-2.578 1.162,-3.841 3.335,-3.841 1.213,0 2.426,0.455 3.133,1.263 l 2.071,-3.385 c -1.111,-1.113 -3.132,-2.072 -5.81,-2.072 -4.548,0 -7.276,2.678 -7.276,7.883 v 12.935 l -3.992,0 z" /></g><g
           transform="translate(290.2979,17.7307)"
           id="g56"><path
             id="path58"
             style="fill:#577ea8;fill-opacity:1;fill-rule:nonzero;stroke:none"
             d="m 0,0 c 0,-4.244 2.476,-7.074 6.215,-7.074 3.84,0 6.315,2.83 6.315,7.074 v 13.391 h 4.498 V -0.354 c 0,-6.569 -4.296,-10.914 -10.813,-10.914 -6.468,0 -10.712,4.345 -10.712,10.914 V 13.391 H 0 Z" /></g><path
           id="path60"
           style="fill:#577ea8;fill-opacity:1;fill-rule:nonzero;stroke:none"
           d="m 317.33,6.918 h -4.497 v 24.203 h 4.497 z m -5.053,31.176 c 0,1.516 1.264,2.779 2.78,2.779 1.515,0 2.779,-1.263 2.779,-2.779 0,-1.516 -1.264,-2.779 -2.779,-2.779 -1.516,0 -2.78,1.263 -2.78,2.779" /><g
           transform="translate(320.4629,31.1213)"
           id="g62"><path
             id="path64"
             style="fill:#577ea8;fill-opacity:1;fill-rule:nonzero;stroke:none"
             d="M 0,0 H 4.043 V 6.013 H 8.489 V 0 h 6.872 V -3.992 H 8.54 v -12.783 c 0,-2.578 1.162,-3.841 3.335,-3.841 1.212,0 2.425,0.455 3.132,1.263 l 2.072,-3.385 c -1.112,-1.113 -3.133,-2.072 -5.81,-2.072 -4.548,0 -7.277,2.678 -7.277,7.883 v 12.935 l -3.992,0 z" /></g><g
           transform="translate(98.0835,32.0305)"
           id="g66"><path
             id="path68"
             style="fill:#577ea8;fill-opacity:1;fill-rule:nonzero;stroke:none"
             d="M 0,0 V -25.112 H -4.547 V 3.891 c 0,1.869 1.515,3.384 3.385,3.384 1.163,0 2.245,-0.596 2.865,-1.582 L 12.379,-11.269 23.122,5.872 c 0.547,0.874 1.505,1.403 2.535,1.403 1.653,0 2.993,-1.338 2.993,-2.992 V -25.112 H 24.102 V 0 l -9.661,-15.06 c -1.107,-1.725 -3.627,-1.727 -4.736,-0.004 z" /></g></g></g></g></svg>